<?xml version="1.0" encoding="UTF-8" standalone="no"?>
<svg
   xmlns:dc="http://purl.org/dc/elements/1.1/"
   xmlns:cc="http://creativecommons.org/ns#"
   xmlns:rdf="http://www.w3.org/1999/02/22-rdf-syntax-ns#"
   xmlns:svg="http://www.w3.org/2000/svg"
   xmlns="http://www.w3.org/2000/svg"
   xmlns:sodipodi="http://sodipodi.sourceforge.net/DTD/sodipodi-0.dtd"
   xmlns:inkscape="http://www.inkscape.org/namespaces/inkscape"
   width="49.000008mm"
   height="49mm"
   viewBox="0 0 49.000008 49"
   version="1.1"
   id="svg8"
   inkscape:version="1.0.1 (1.0.1+r73)"
   sodipodi:docname="he_logo.svg">
  <defs
     id="defs2" />
  <sodipodi:namedview
     id="base"
     pagecolor="#ffffff"
     bordercolor="#666666"
     borderopacity="1.0"
     inkscape:pageopacity="0.0"
     inkscape:pageshadow="2"
     inkscape:zoom="1.979899"
     inkscape:cx="-24.3779"
     inkscape:cy="87.143568"
     inkscape:document-units="mm"
     inkscape:current-layer="layer1"
     inkscape:document-rotation="0"
     showgrid="false"
     fit-margin-top="0"
     fit-margin-left="0"
     fit-margin-right="0"
     fit-margin-bottom="0"
     inkscape:window-width="1920"
     inkscape:window-height="1018"
     inkscape:window-x="1920"
     inkscape:window-y="34"
     inkscape:window-maximized="1" />
  <metadata
     id="metadata5">
    <rdf:RDF>
      <cc:Work
         rdf:about="">
        <dc:format>image/svg+xml</dc:format>
        <dc:type
           rdf:resource="http://purl.org/dc/dcmitype/StillImage" />
        <dc:title></dc:title>
      </cc:Work>
    </rdf:RDF>
  </metadata>
  <g
     inkscape:label="Layer 1"
     inkscape:groupmode="layer"
     id="layer1"
     transform="translate(-23.593334,-13.618818)">
    <rect
       style="fill:#333333;stroke:none;stroke-width:1"
       id="rect833"
       width="49"
       height="49"
       x="23.59334"
       y="13.618819" />
    <rect
       style="fill:#c83737;stroke:none;stroke-width:0.999999"
       id="rect833-3"
       width="10"
       height="10.000001"
       x="23.593334"
       y="13.618818" />
    <rect
       style="fill:#ff6600;stroke:none;stroke-width:0.999999"
       id="rect833-3-6"
       width="10"
       height="10.000001"
       x="23.593334"
       y="23.618999" />
    <rect
       style="fill:#ffcc00;stroke:none;stroke-width:0.999999"
       id="rect833-3-6-7"
       width="10"
       height="10.000001"
       x="23.593334"
       y="33.618999" />
    <rect
       style="fill:#ccff00;stroke:none;stroke-width:0.149026"
       id="rect833-3-6-7-5"
       width="9.999999"
       height="10"
       x="23.593334"
       y="43.618999" />
    <rect
       style="fill:#3771c8;stroke:none;stroke-width:0.149026"
       id="rect833-3-6-7-5-3"
       width="9.999999"
       height="10"
       x="23.59334"
       y="52.61882" />
    <g
       aria-label="He"
       id="text912"
       style="font-size:10.5833px;line-height:1.25;font-family:'Century Gothic';-inkscape-font-specification:'Century Gothic';letter-spacing:0px;word-spacing:0px;fill:#ffffff;stroke-width:0.092468"
       transform="matrix(2.861346,0,0,2.861346,-82.87574,-58.315117)">
      <path
         d="m 47.420246,40.70761 q 0,0.330728 -0.330728,0.330728 -0.330728,0 -0.330728,-0.330728 v -2.645825 h -2.42534 v 2.645825 q 0,0.330728 -0.330728,0.330728 -0.330728,0 -0.330728,-0.330728 v -5.953106 q 0,-0.330729 0.330728,-0.330729 0.330728,0 0.330728,0.330729 v 2.645824 h 2.42534 v -2.645824 q 0,-0.330729 0.330728,-0.330729 0.330728,0 0.330728,0.330729 z"
         style="font-style:normal;font-variant:normal;font-weight:normal;font-stretch:normal;font-family:Monofur;-inkscape-font-specification:Monofur;fill:#ffffff;stroke-width:0.092468"
         id="path914" />
      <path
         d="m 53.157276,39.711016 q 0,0.08378 -0.05292,0.180798 -0.30427,0.529165 -0.91281,0.842254 -0.577671,0.30427 -1.212669,0.30427 -0.992185,0 -1.710967,-0.657047 -0.745241,-0.674685 -0.745241,-1.65805 0,-0.983365 0.745241,-1.65805 0.718782,-0.657047 1.710967,-0.657047 0.361596,0 0.75406,0.127882 0.440971,0.14552 0.877532,0.463019 0.542394,0.396874 0.542394,0.75406 0,0.176388 -0.171979,0.268992 l -3.342559,1.799161 q 0.542394,0.555623 1.340552,0.555623 0.851073,0 1.375829,-0.5909 0.06174,-0.07937 0.185207,-0.242534 0.127882,-0.16316 0.273402,-0.16316 0.132291,0 0.238124,0.09701 0.105833,0.09701 0.105833,0.233715 z M 52.323842,37.625224 Q 51.785857,37.0696 50.978881,37.0696 q -0.714373,0 -1.243538,0.46302 -0.551214,0.485068 -0.551214,1.190621 0,0.282221 0.09701,0.537984 z"
         style="font-style:normal;font-variant:normal;font-weight:normal;font-stretch:normal;font-family:Monofur;-inkscape-font-specification:Monofur;fill:#ffffff;stroke-width:0.092468"
         id="path916" />
    </g>
  </g>
</svg>
