<?xml version="1.0" encoding="UTF-8" standalone="no"?>
<svg
   xmlns:dc="http://purl.org/dc/elements/1.1/"
   xmlns:cc="http://creativecommons.org/ns#"
   xmlns:rdf="http://www.w3.org/1999/02/22-rdf-syntax-ns#"
   xmlns:svg="http://www.w3.org/2000/svg"
   xmlns="http://www.w3.org/2000/svg"
   xmlns:sodipodi="http://sodipodi.sourceforge.net/DTD/sodipodi-0.dtd"
   xmlns:inkscape="http://www.inkscape.org/namespaces/inkscape"
   width="210mm"
   height="297mm"
   viewBox="0 0 210 297"
   version="1.1"
   id="svg943"
   inkscape:version="1.0.1 (1.0.1+r73)"
   sodipodi:docname="report_template.svg">
  <defs
     id="defs937">
    <rect
       x="-15.04679"
       y="68.136226"
       width="188.65065"
       height="20.228784"
       id="rect1149" />
  </defs>
  <sodipodi:namedview
     id="base"
     pagecolor="#ffffff"
     bordercolor="#666666"
     borderopacity="1.0"
     inkscape:pageopacity="0.0"
     inkscape:pageshadow="2"
     inkscape:zoom="0.98994949"
     inkscape:cx="114.7702"
     inkscape:cy="254.95874"
     inkscape:document-units="mm"
     inkscape:current-layer="layer1"
     inkscape:document-rotation="0"
     showgrid="false"
     inkscape:window-width="1920"
     inkscape:window-height="1052"
     inkscape:window-x="0"
     inkscape:window-y="0"
     inkscape:window-maximized="1" />
  <metadata
     id="metadata940">
    <rdf:RDF>
      <cc:Work
         rdf:about="">
        <dc:format>image/svg+xml</dc:format>
        <dc:type
           rdf:resource="http://purl.org/dc/dcmitype/StillImage" />
        <dc:title />
      </cc:Work>
    </rdf:RDF>
  </metadata>
  <g
     inkscape:label="Layer 1"
     inkscape:groupmode="layer"
     id="layer1">
    <g
       id="g1360"
       transform="translate(0,2.236496)">
      <text
         xml:space="preserve"
         style="font-size:8.46667px;line-height:1.25;font-family:monospace;-inkscape-font-specification:monospace;letter-spacing:0px;word-spacing:0px;stroke-width:0.264583"
         x="37.073029"
         y="124.98293"
         id="text1081"><tspan
           sodipodi:role="line"
           id="tspan1079"
           x="37.073029"
           y="124.98293"
           style="font-size:8.46667px;stroke-width:0.264583"><tspan
             style="font-weight:bold;font-size:8.46667px"
             id="tspan1163">{{mq1}}</tspan></tspan></text>
      <text
         xml:space="preserve"
         style="font-size:3.88056px;line-height:1.25;font-family:monospace;-inkscape-font-specification:monospace;letter-spacing:0px;word-spacing:0px;stroke-width:0.264583"
         x="37.381882"
         y="132.92039"
         id="text1353"><tspan
           sodipodi:role="line"
           id="tspan1351"
           x="37.381882"
           y="132.92039"
           style="font-size:3.88056px;stroke-width:0.264583">{{mf_1}}</tspan></text>
    </g>
    <g
       inkscape:label="Layer 1"
       id="layer1-74"
       transform="matrix(0.12210079,0,0,0.12210079,5.2505367,282.5955)">
      <rect
         style="fill:#333333;stroke:none;stroke-width:1"
         id="rect833"
         width="49"
         height="49"
         x="23.59334"
         y="13.618819" />
      <rect
         style="fill:#c83737;stroke:none;stroke-width:0.999999"
         id="rect833-3"
         width="10"
         height="10.000001"
         x="23.593334"
         y="13.618818" />
      <rect
         style="fill:#ff6600;stroke:none;stroke-width:0.999999"
         id="rect833-3-6"
         width="10"
         height="10.000001"
         x="23.593334"
         y="23.618999" />
      <rect
         style="fill:#ffcc00;stroke:none;stroke-width:0.999999"
         id="rect833-3-6-7"
         width="10"
         height="10.000001"
         x="23.593334"
         y="33.618999" />
      <rect
         style="fill:#ccff00;stroke:none;stroke-width:0.149026"
         id="rect833-3-6-7-5"
         width="9.999999"
         height="10"
         x="23.593334"
         y="43.618999" />
      <rect
         style="fill:#3771c8;stroke:none;stroke-width:0.149026"
         id="rect833-3-6-7-5-3"
         width="9.999999"
         height="10"
         x="23.59334"
         y="52.61882" />
      <g
         aria-label="He"
         id="text912"
         style="font-size:10.5833px;line-height:1.25;font-family:'Century Gothic';-inkscape-font-specification:'Century Gothic';letter-spacing:0px;word-spacing:0px;fill:#ffffff;stroke-width:0.092468"
         transform="matrix(2.861346,0,0,2.861346,-82.87574,-58.315117)">
        <path
           d="m 47.420246,40.70761 q 0,0.330728 -0.330728,0.330728 -0.330728,0 -0.330728,-0.330728 v -2.645825 h -2.42534 v 2.645825 q 0,0.330728 -0.330728,0.330728 -0.330728,0 -0.330728,-0.330728 v -5.953106 q 0,-0.330729 0.330728,-0.330729 0.330728,0 0.330728,0.330729 v 2.645824 h 2.42534 v -2.645824 q 0,-0.330729 0.330728,-0.330729 0.330728,0 0.330728,0.330729 z"
           style="font-style:normal;font-variant:normal;font-weight:normal;font-stretch:normal;font-family:Monofur;-inkscape-font-specification:Monofur;fill:#ffffff;stroke-width:0.092468"
           id="path914" />
        <path
           d="m 53.157276,39.711016 q 0,0.08378 -0.05292,0.180798 -0.30427,0.529165 -0.91281,0.842254 -0.577671,0.30427 -1.212669,0.30427 -0.992185,0 -1.710967,-0.657047 -0.745241,-0.674685 -0.745241,-1.65805 0,-0.983365 0.745241,-1.65805 0.718782,-0.657047 1.710967,-0.657047 0.361596,0 0.75406,0.127882 0.440971,0.14552 0.877532,0.463019 0.542394,0.396874 0.542394,0.75406 0,0.176388 -0.171979,0.268992 l -3.342559,1.799161 q 0.542394,0.555623 1.340552,0.555623 0.851073,0 1.375829,-0.5909 0.06174,-0.07937 0.185207,-0.242534 0.127882,-0.16316 0.273402,-0.16316 0.132291,0 0.238124,0.09701 0.105833,0.09701 0.105833,0.233715 z M 52.323842,37.625224 Q 51.785857,37.0696 50.978881,37.0696 q -0.714373,0 -1.243538,0.46302 -0.551214,0.485068 -0.551214,1.190621 0,0.282221 0.09701,0.537984 z"
           style="font-style:normal;font-variant:normal;font-weight:normal;font-stretch:normal;font-family:Monofur;-inkscape-font-specification:Monofur;fill:#ffffff;stroke-width:0.092468"
           id="path916" />
      </g>
    </g>
    <g
       aria-label="Powered by Helium"
       id="text2161"
       style="font-size:5.33874px;line-height:1.25;font-family:'Century Gothic';-inkscape-font-specification:'Century Gothic';letter-spacing:0px;word-spacing:0px;stroke-width:0.133469"
       transform="translate(-6.3832133,0.84162438)">
      <path
         d="m 24.98188,285.82757 q 0,0.41375 -0.293631,0.70738 -0.293631,0.29363 -0.707383,0.29363 H 23.2023 v 1.16785 q 0,0.16684 -0.166836,0.16684 -0.166836,0 -0.166836,-0.16684 v -3.00304 q 0,-0.0667 0.04894,-0.11567 0.05116,-0.0512 0.117897,-0.0512 h 0.945402 q 0.413752,0 0.707383,0.29363 0.293631,0.29363 0.293631,0.70738 z m -0.333672,0 q 0,-0.27583 -0.195753,-0.47159 -0.195754,-0.19575 -0.471589,-0.19575 H 23.2023 v 1.33468 h 0.778566 q 0.275835,0 0.471589,-0.19575 0.195753,-0.19575 0.195753,-0.47159 z"
         style="font-style:normal;font-variant:normal;font-weight:normal;font-stretch:normal;font-family:Monofur;-inkscape-font-specification:Monofur;stroke-width:0.133469"
         id="path2163" />
      <path
         d="m 27.65125,286.99542 q 0,0.48271 -0.34257,0.82528 -0.342569,0.34257 -0.82528,0.34257 -0.482711,0 -0.82528,-0.34257 -0.342569,-0.34257 -0.342569,-0.82528 0,-0.48271 0.342569,-0.82528 0.342569,-0.34257 0.82528,-0.34257 0.482711,0 0.82528,0.34257 0.34257,0.34257 0.34257,0.82528 z m -0.333672,0 q 0,-0.34479 -0.244692,-0.58949 -0.244692,-0.24469 -0.589486,-0.24469 -0.344793,0 -0.589486,0.24469 -0.244692,0.2447 -0.244692,0.58949 0,0.34479 0.244692,0.58949 0.244693,0.24469 0.589486,0.24469 0.344794,0 0.589486,-0.24469 0.244692,-0.2447 0.244692,-0.58949 z"
         style="font-style:normal;font-variant:normal;font-weight:normal;font-stretch:normal;font-family:Monofur;-inkscape-font-specification:Monofur;stroke-width:0.133469"
         id="path2165" />
      <path
         d="m 30.322844,285.98773 q 0,0.0267 -0.0089,0.0556 l -0.593935,1.97534 q -0.04227,0.14459 -0.166835,0.14459 -0.124571,0 -0.166836,-0.14459 l -0.23357,-0.77412 -0.23357,0.77412 q -0.04227,0.14459 -0.166835,0.14459 -0.124571,0 -0.166836,-0.14459 l -0.593935,-1.97534 q -0.0089,-0.0289 -0.0089,-0.0556 0,-0.16016 0.173509,-0.16016 0.120122,0 0.155714,0.1179 l 0.440446,1.47038 0.226896,-0.75188 q -0.195754,-0.64954 -0.195754,-0.67624 0,-0.16016 0.173509,-0.16016 0.120122,0 0.155714,0.1179 l 0.440446,1.47038 0.440446,-1.47038 q 0.03559,-0.1179 0.155713,-0.1179 0.173509,0 0.173509,0.16016 z"
         style="font-style:normal;font-variant:normal;font-weight:normal;font-stretch:normal;font-family:Monofur;-inkscape-font-specification:Monofur;stroke-width:0.133469"
         id="path2167" />
      <path
         d="m 32.992214,287.4937 q 0,0.0423 -0.02669,0.0912 -0.153488,0.26693 -0.460466,0.42487 -0.291406,0.15349 -0.61173,0.15349 -0.500507,0 -0.863097,-0.33145 -0.375936,-0.34034 -0.375936,-0.8364 0,-0.49606 0.375936,-0.8364 0.36259,-0.33145 0.863097,-0.33145 0.182406,0 0.380385,0.0645 0.222447,0.0734 0.44267,0.23357 0.273611,0.2002 0.273611,0.38039 0,0.089 -0.08675,0.13569 l -1.686152,0.90758 q 0.273611,0.28029 0.676241,0.28029 0.429323,0 0.694036,-0.29808 0.03114,-0.04 0.09343,-0.12235 0.06451,-0.0823 0.137917,-0.0823 0.06673,0 0.120122,0.0489 0.05339,0.0489 0.05339,0.1179 z m -0.420426,-1.05217 q -0.271386,-0.28029 -0.678464,-0.28029 -0.360365,0 -0.627302,0.23357 -0.27806,0.24469 -0.27806,0.60061 0,0.14237 0.04894,0.27139 z"
         style="font-style:normal;font-variant:normal;font-weight:normal;font-stretch:normal;font-family:Monofur;-inkscape-font-specification:Monofur;stroke-width:0.133469"
         id="path2169" />
      <path
         d="m 35.661584,286.36589 q 0,0.069 -0.05339,0.12012 -0.05116,0.0489 -0.120121,0.0489 -0.06229,0 -0.124571,-0.0645 -0.306977,-0.3092 -0.649546,-0.3092 -0.344794,0 -0.589486,0.24469 -0.244693,0.2447 -0.244693,0.58949 v 1.00101 q 0,0.16684 -0.166835,0.16684 -0.166836,0 -0.166836,-0.16684 v -2.00202 q 0,-0.16684 0.166836,-0.16684 0.129019,0 0.160162,0.12457 0.0089,0.04 0.0067,0.2269 0.34257,-0.35147 0.834179,-0.35147 0.25359,0 0.504955,0.11567 0.264713,0.12012 0.40263,0.3181 0.04004,0.0578 0.04004,0.10455 z"
         style="font-style:normal;font-variant:normal;font-weight:normal;font-stretch:normal;font-family:Monofur;-inkscape-font-specification:Monofur;stroke-width:0.133469"
         id="path2171" />
      <path
         d="m 38.330954,287.4937 q 0,0.0423 -0.02669,0.0912 -0.153489,0.26693 -0.460466,0.42487 -0.291407,0.15349 -0.611731,0.15349 -0.500507,0 -0.863096,-0.33145 -0.375937,-0.34034 -0.375937,-0.8364 0,-0.49606 0.375937,-0.8364 0.362589,-0.33145 0.863096,-0.33145 0.182407,0 0.380385,0.0645 0.222448,0.0734 0.442671,0.23357 0.27361,0.2002 0.27361,0.38039 0,0.089 -0.08675,0.13569 l -1.686152,0.90758 q 0.27361,0.28029 0.67624,0.28029 0.429324,0 0.694036,-0.29808 0.03114,-0.04 0.09343,-0.12235 0.06451,-0.0823 0.137918,-0.0823 0.06673,0 0.120121,0.0489 0.05339,0.0489 0.05339,0.1179 z m -0.420426,-1.05217 q -0.271386,-0.28029 -0.678465,-0.28029 -0.360365,0 -0.627302,0.23357 -0.278059,0.24469 -0.278059,0.60061 0,0.14237 0.04894,0.27139 z"
         style="font-style:normal;font-variant:normal;font-weight:normal;font-stretch:normal;font-family:Monofur;-inkscape-font-specification:Monofur;stroke-width:0.133469"
         id="path2173" />
      <path
         d="m 40.775652,287.99643 q 0,0.16684 -0.166835,0.16684 -0.122347,0 -0.153489,-0.10678 -0.01335,-0.0467 -0.01335,-0.2091 -0.302529,0.31588 -0.722954,0.31588 -0.456018,0 -0.762995,-0.36037 -0.293631,-0.34479 -0.293631,-0.80748 0,-0.46269 0.293631,-0.80748 0.306977,-0.36037 0.762995,-0.36037 0.420425,0 0.722954,0.31588 v -1.15006 q 0,-0.16683 0.166836,-0.16683 0.166835,0 0.166835,0.16683 z m -0.333671,-1.00101 q 0,-0.32477 -0.195754,-0.56947 -0.211325,-0.26471 -0.5272,-0.26471 -0.315876,0 -0.527201,0.26471 -0.195754,0.2447 -0.195754,0.56947 0,0.32477 0.195754,0.56947 0.211325,0.26471 0.527201,0.26471 0.315875,0 0.5272,-0.26471 0.195754,-0.2447 0.195754,-0.56947 z"
         style="font-style:normal;font-variant:normal;font-weight:normal;font-stretch:normal;font-family:Monofur;-inkscape-font-specification:Monofur;stroke-width:0.133469"
         id="path2175" />
      <path
         d="m 46.336839,286.99542 q 0,0.47381 -0.3181,0.81638 -0.324773,0.35147 -0.794137,0.35147 -0.469365,0 -0.794138,-0.35147 -0.3181,-0.34257 -0.3181,-0.81638 v -2.00203 q 0,-0.16683 0.166836,-0.16683 0.166835,0 0.166835,0.16683 v 1.16785 q 0.322549,-0.33367 0.778567,-0.33367 0.469364,0 0.794137,0.35147 0.3181,0.34257 0.3181,0.81638 z m -0.333671,0 q 0,-0.3359 -0.220223,-0.58059 -0.226897,-0.25359 -0.558343,-0.25359 -0.331447,0 -0.558344,0.25359 -0.220223,0.24469 -0.220223,0.58059 0,0.3359 0.220223,0.58059 0.226897,0.25359 0.558344,0.25359 0.331446,0 0.558343,-0.25359 0.220223,-0.24469 0.220223,-0.58059 z"
         style="font-style:normal;font-variant:normal;font-weight:normal;font-stretch:normal;font-family:Monofur;-inkscape-font-specification:Monofur;stroke-width:0.133469"
         id="path2177" />
      <path
         d="m 48.783762,285.99441 v 2.16886 q 0,0.41375 -0.29363,0.70738 -0.293631,0.29363 -0.707383,0.29363 -0.262488,0 -0.498283,-0.13347 -0.244692,-0.13791 -0.367038,-0.36259 -0.02447,-0.0489 -0.02447,-0.089 0,-0.0667 0.05339,-0.11568 0.05339,-0.0489 0.120122,-0.0489 0.07563,0 0.140142,0.0845 0.249141,0.33145 0.576139,0.33145 0.275834,0 0.471588,-0.19575 0.195754,-0.19576 0.195754,-0.47159 v -0.25582 q -0.284733,0.25582 -0.667342,0.25582 -0.413753,0 -0.707383,-0.29363 -0.293631,-0.29363 -0.293631,-0.70738 v -1.16785 q 0,-0.16684 0.166835,-0.16684 0.166836,0 0.166836,0.16684 v 1.16785 q 0,0.27583 0.195754,0.47158 0.195754,0.19576 0.471589,0.19576 0.275834,0 0.471588,-0.19576 0.195754,-0.19575 0.195754,-0.46936 v -1.17007 q 0,-0.16684 0.166836,-0.16684 0.166835,0 0.166835,0.16684 z"
         style="font-style:normal;font-variant:normal;font-weight:normal;font-stretch:normal;font-family:Monofur;-inkscape-font-specification:Monofur;stroke-width:0.133469"
         id="path2179" />
      <path
         d="m 54.122502,287.99643 q 0,0.16684 -0.166836,0.16684 -0.166836,0 -0.166836,-0.16684 v -1.33468 h -1.223461 v 1.33468 q 0,0.16684 -0.166835,0.16684 -0.166836,0 -0.166836,-0.16684 v -3.00304 q 0,-0.16683 0.166836,-0.16683 0.166835,0 0.166835,0.16683 v 1.33469 h 1.223461 v -1.33469 q 0,-0.16683 0.166836,-0.16683 0.166836,0 0.166836,0.16683 z"
         style="font-style:normal;font-variant:normal;font-weight:normal;font-stretch:normal;font-family:Monofur;-inkscape-font-specification:Monofur;stroke-width:0.133469"
         id="path2181" />
      <path
         d="m 57.016544,287.4937 q 0,0.0423 -0.02669,0.0912 -0.153489,0.26693 -0.460467,0.42487 -0.291406,0.15349 -0.61173,0.15349 -0.500507,0 -0.863097,-0.33145 -0.375936,-0.34034 -0.375936,-0.8364 0,-0.49606 0.375936,-0.8364 0.36259,-0.33145 0.863097,-0.33145 0.182407,0 0.380385,0.0645 0.222447,0.0734 0.44267,0.23357 0.273611,0.2002 0.273611,0.38039 0,0.089 -0.08675,0.13569 l -1.686152,0.90758 q 0.273611,0.28029 0.676241,0.28029 0.429323,0 0.694036,-0.29808 0.03114,-0.04 0.09343,-0.12235 0.06451,-0.0823 0.137917,-0.0823 0.06673,0 0.120122,0.0489 0.05339,0.0489 0.05339,0.1179 z m -0.420425,-1.05217 q -0.271386,-0.28029 -0.678465,-0.28029 -0.360365,0 -0.627302,0.23357 -0.27806,0.24469 -0.27806,0.60061 0,0.14237 0.04894,0.27139 z"
         style="font-style:normal;font-variant:normal;font-weight:normal;font-stretch:normal;font-family:Monofur;-inkscape-font-specification:Monofur;stroke-width:0.133469"
         id="path2183" />
      <path
         d="m 59.685913,287.66054 q 0,0.0467 -0.03559,0.10232 -0.117897,0.18019 -0.351467,0.29363 -0.222447,0.10678 -0.449344,0.10678 -0.413752,0 -0.707383,-0.29363 -0.29363,-0.29363 -0.29363,-0.70738 v -2.16887 q 0,-0.16683 0.166835,-0.16683 0.166836,0 0.166836,0.16683 v 2.16887 q 0,0.27583 0.195754,0.47158 0.195754,0.19576 0.471588,0.19576 0.242468,0 0.431549,-0.16684 0.191304,-0.16906 0.231345,-0.16906 0.06896,0 0.120122,0.0512 0.05339,0.0489 0.05339,0.11567 z"
         style="font-style:normal;font-variant:normal;font-weight:normal;font-stretch:normal;font-family:Monofur;-inkscape-font-specification:Monofur;stroke-width:0.133469"
         id="path2185" />
      <path
         d="m 61.438798,285.08015 q 0,0.10455 -0.07563,0.17573 -0.07341,0.0712 -0.177958,0.0712 -0.10455,0 -0.180183,-0.0712 -0.07341,-0.0712 -0.07341,-0.17573 0,-0.10455 0.07341,-0.17796 0.07563,-0.0756 0.180183,-0.0756 0.10455,0 0.177958,0.0756 0.07563,0.0734 0.07563,0.17796 z m 0.580588,2.91628 q 0,0.16684 -0.166836,0.16684 h -0.667342 q -0.166836,0 -0.166836,-0.16684 v -1.83519 h -0.500507 q -0.166835,0 -0.166835,-0.16683 0,-0.16684 0.166835,-0.16684 h 0.669567 q 0.164612,0 0.164612,0.16684 v 1.83519 h 0.500506 q 0.166836,0 0.166836,0.16683 z"
         style="font-style:normal;font-variant:normal;font-weight:normal;font-stretch:normal;font-family:Monofur;-inkscape-font-specification:Monofur;stroke-width:0.133469"
         id="path2187" />
      <path
         d="m 64.911206,287.10664 q 0,0.43823 -0.309202,0.74743 -0.309202,0.3092 -0.747423,0.3092 -0.438222,0 -0.747424,-0.3092 -0.309202,-0.3092 -0.309202,-0.74743 v -1.11223 q 0,-0.16684 0.166836,-0.16684 0.166835,0 0.166835,0.16684 v 1.11223 q 0,0.29808 0.211325,0.51163 0.21355,0.21133 0.51163,0.21133 0.298079,0 0.509404,-0.21133 0.21355,-0.21355 0.21355,-0.51163 v -1.11223 q 0,-0.16684 0.166836,-0.16684 0.166835,0 0.166835,0.16684 z"
         style="font-style:normal;font-variant:normal;font-weight:normal;font-stretch:normal;font-family:Monofur;-inkscape-font-specification:Monofur;stroke-width:0.133469"
         id="path2189" />
      <path
         d="m 67.691799,287.99643 q 0,0.16684 -0.166836,0.16684 -0.166836,0 -0.166836,-0.16684 v -1.50152 q 0,-0.13791 -0.09788,-0.23579 -0.09788,-0.0979 -0.235794,-0.0979 -0.137917,0 -0.235794,0.0979 -0.09788,0.0979 -0.09788,0.23579 v 1.50152 q 0,0.16684 -0.166836,0.16684 -0.166835,0 -0.166835,-0.16684 v -1.50152 q 0,-0.13791 -0.09788,-0.23579 -0.09788,-0.0979 -0.235795,-0.0979 -0.137917,0 -0.235794,0.0979 -0.09788,0.0979 -0.09788,0.23579 v 1.50152 q 0,0.16684 -0.166835,0.16684 -0.166836,0 -0.166836,-0.16684 v -2.00202 q 0,-0.16684 0.166836,-0.16684 0.113448,0 0.153488,0.0979 0.160163,-0.0979 0.347018,-0.0979 0.300305,0 0.500507,0.2269 0.200203,-0.2269 0.500507,-0.2269 0.275835,0 0.471589,0.19575 0.195754,0.19576 0.195754,0.47159 z"
         style="font-style:normal;font-variant:normal;font-weight:normal;font-stretch:normal;font-family:Monofur;-inkscape-font-specification:Monofur;stroke-width:0.133469"
         id="path2191" />
    </g>
    <text
       xml:space="preserve"
       style="font-size:4.93889px;line-height:1.25;font-family:monospace;-inkscape-font-specification:monospace;letter-spacing:0px;word-spacing:0px;stroke-width:0.264583"
       x="11.750013"
       y="69.885826"
       id="text1045"><tspan
         sodipodi:role="line"
         id="tspan1043"
         x="11.750013"
         y="69.885826"
         style="font-size:4.93889px;stroke-width:0.264583">Project name:      {{ proj_name }}</tspan></text>
    <text
       xml:space="preserve"
       style="font-size:4.93889px;line-height:1.25;font-family:monospace;-inkscape-font-specification:monospace;letter-spacing:0px;word-spacing:0px;stroke-width:0.264583"
       x="11.750013"
       y="77.823326"
       id="text1049"><tspan
         sodipodi:role="line"
         id="tspan1047"
         x="11.750013"
         y="77.823326"
         style="font-size:4.93889px;stroke-width:0.264583">Report generated:  {{ report_date }}</tspan></text>
    <text
       xml:space="preserve"
       style="font-size:7.05556px;line-height:1.25;font-family:monospace;-inkscape-font-specification:monospace;letter-spacing:0px;word-spacing:0px;stroke-width:0.264583"
       x="11.354172"
       y="112.08628"
       id="text1071"><tspan
         sodipodi:role="line"
         id="tspan1069"
         x="11.354172"
         y="112.08628"
         style="font-size:7.05556px;stroke-width:0.264583">Lowest Maintainability Index Files</tspan></text>
    <circle
       style="fill:#ff01ff;stroke:none;stroke-width:1.16034;fill-opacity:1"
       id="path1073"
       cx="20.164185"
       cy="128.42941"
       r="9.9893856" />
    <text
       xml:space="preserve"
       style="font-size:4.23333px;line-height:1.25;font-family:monospace;-inkscape-font-specification:monospace;letter-spacing:0px;word-spacing:0px;fill:#ffffff;stroke-width:0.264583"
       x="20.163151"
       y="129.69238"
       id="text1077"><tspan
         sodipodi:role="line"
         id="tspan1075"
         x="20.163151"
         y="129.69238"
         style="font-size:4.23333px;text-align:center;text-anchor:middle;fill:#ffffff;stroke-width:0.264583">{{m1}}</tspan></text>
    <circle
       style="fill:#ff02ff;stroke:none;stroke-width:1.16034;fill-opacity:1"
       id="circle1072"
       cx="20.164185"
       cy="152.24193"
       r="9.9893856" />
    <text
       xml:space="preserve"
       style="font-size:4.23333px;line-height:1.25;font-family:monospace;-inkscape-font-specification:monospace;letter-spacing:0px;word-spacing:0px;fill:#ffffff;stroke-width:0.264583"
       x="20.163151"
       y="153.5049"
       id="text1076"><tspan
         sodipodi:role="line"
         id="tspan1074"
         x="20.163151"
         y="153.5049"
         style="font-size:4.23333px;text-align:center;text-anchor:middle;fill:#ffffff;stroke-width:0.264583">{{m2}}</tspan></text>
    <circle
       style="fill:#ff03ff;stroke:none;stroke-width:1.16034;fill-opacity:1"
       id="circle1089"
       cx="20.164185"
       cy="176.05443"
       r="9.9893856" />
    <text
       xml:space="preserve"
       style="font-size:4.23333px;line-height:1.25;font-family:monospace;-inkscape-font-specification:monospace;letter-spacing:0px;word-spacing:0px;fill:#ffffff;stroke-width:0.264583"
       x="20.163151"
       y="177.3174"
       id="text1093"><tspan
         sodipodi:role="line"
         id="tspan1091"
         x="20.163151"
         y="177.3174"
         style="font-size:4.23333px;text-align:center;text-anchor:middle;fill:#ffffff;stroke-width:0.264583">{{m3}}</tspan></text>
    <text
       xml:space="preserve"
       style="font-size:7.05556px;line-height:1.25;font-family:monospace;-inkscape-font-specification:monospace;letter-spacing:0px;word-spacing:0px;stroke-width:0.264583"
       x="11.354172"
       y="202.04468"
       id="text1135"><tspan
         sodipodi:role="line"
         id="tspan1133"
         x="11.354172"
         y="202.04468"
         style="font-size:7.05556px;stroke-width:0.264583">Highest Cyclomatic Complexity Functions</tspan></text>
    <g
       aria-label="Focused Code Quality Report"
       id="text1145"
       style="font-size:11.2889px;line-height:1.25;font-family:monospace;-inkscape-font-specification:monospace;letter-spacing:0px;word-spacing:0px;stroke-width:0.264583">
      <path
         d="m 17.107892,55.227098 q 0,0.352778 -0.352778,0.352778 h -3.410188 v 2.822225 q 0,0.352778 -0.352779,0.352778 -0.352778,0 -0.352778,-0.352778 v -6.35471 q 0,-0.348075 0.348075,-0.348075 h 3.76767 q 0.352778,0 0.352778,0.352778 0,0.352779 -0.352778,0.352779 h -3.410188 v 2.469446 h 3.410188 q 0.352778,0 0.352778,0.352779 z"
         style="font-style:normal;font-variant:normal;font-weight:normal;font-stretch:normal;font-size:11.2889px;font-family:Monofur;-inkscape-font-specification:Monofur;stroke-width:0.264583"
         id="path1213" />
      <path
         d="m 22.752343,56.285432 q 0,1.020705 -0.724372,1.745076 -0.724371,0.724371 -1.745075,0.724371 -1.020705,0 -1.745076,-0.724371 -0.724371,-0.724371 -0.724371,-1.745076 0,-1.020705 0.724371,-1.745076 0.724371,-0.724371 1.745076,-0.724371 1.020704,0 1.745075,0.724371 0.724372,0.724371 0.724372,1.745076 z m -0.705557,0 q 0,-0.729075 -0.517408,-1.246483 -0.517408,-0.517408 -1.246482,-0.517408 -0.729075,0 -1.246483,0.517408 -0.517408,0.517408 -0.517408,1.246483 0,0.729075 0.517408,1.246483 0.517408,0.517408 1.246483,0.517408 0.729074,0 1.246482,-0.517408 0.517408,-0.517408 0.517408,-1.246483 z"
         style="font-style:normal;font-variant:normal;font-weight:normal;font-stretch:normal;font-size:11.2889px;font-family:Monofur;-inkscape-font-specification:Monofur;stroke-width:0.264583"
         id="path1215" />
      <path
         d="m 28.401496,54.780245 q 0,0.145815 -0.108185,0.258704 -0.108185,0.108186 -0.249296,0.108186 -0.09878,0 -0.230482,-0.08937 -0.757297,-0.536223 -1.524002,-0.536223 -0.809038,0 -1.439334,0.470371 -0.686742,0.512704 -0.686742,1.29352 0,0.780816 0.691445,1.29352 0.625593,0.470371 1.434631,0.470371 0.762001,0 1.524002,-0.531519 0.127,-0.08937 0.225778,-0.08937 0.145815,0 0.254,0.112889 0.108185,0.108186 0.108185,0.249297 0,0.136407 -0.131703,0.263407 -0.32926,0.32926 -0.921927,0.522112 -0.540927,0.178741 -1.058335,0.178741 -1.105371,0 -1.937928,-0.67263 -0.893704,-0.714964 -0.893704,-1.796817 0,-1.081853 0.893704,-1.796817 0.832557,-0.67263 1.937928,-0.67263 0.517408,0 1.058335,0.178741 0.597371,0.197556 0.92663,0.526815 0.127,0.127 0.127,0.258704 z"
         style="font-style:normal;font-variant:normal;font-weight:normal;font-stretch:normal;font-size:11.2889px;font-family:Monofur;-inkscape-font-specification:Monofur;stroke-width:0.264583"
         id="path1217" />
      <path
         d="m 33.806057,56.520617 q 0,0.926631 -0.653816,1.580447 -0.653815,0.653815 -1.580446,0.653815 -0.926631,0 -1.580446,-0.653815 -0.653816,-0.653816 -0.653816,-1.580447 v -2.351854 q 0,-0.352778 0.352779,-0.352778 0.352778,0 0.352778,0.352778 v 2.351854 q 0,0.630297 0.446852,1.081853 0.451556,0.446853 1.081853,0.446853 0.630297,0 1.077149,-0.446853 0.451556,-0.451556 0.451556,-1.081853 v -2.351854 q 0,-0.352778 0.352778,-0.352778 0.352779,0 0.352779,0.352778 z"
         style="font-style:normal;font-variant:normal;font-weight:normal;font-stretch:normal;font-size:11.2889px;font-family:Monofur;-inkscape-font-specification:Monofur;stroke-width:0.264583"
         id="path1219" />
      <path
         d="m 39.361137,57.165026 q 0,0.752593 -0.757297,1.204149 -0.644408,0.385704 -1.448742,0.385704 -0.602075,0 -1.152409,-0.230482 -0.635,-0.268111 -0.884297,-0.743186 -0.05174,-0.09878 -0.05174,-0.183444 0,-0.141112 0.112889,-0.244593 0.112889,-0.103482 0.254001,-0.103482 0.159926,0 0.296333,0.183445 0.465667,0.616186 1.425224,0.616186 0.950149,0 1.354668,-0.522112 0.145815,-0.188148 0.145815,-0.362185 0,-0.286927 -0.32926,-0.53152 -0.263407,-0.188148 -0.602074,-0.272815 -0.282223,-0.07526 -0.639705,-0.07526 -0.606778,0 -1.086556,-0.305741 -0.555038,-0.352778 -0.555038,-0.931334 0,-0.578556 0.569149,-0.931335 0.489185,-0.301037 1.110075,-0.301037 0.385704,0 0.766704,0.136408 0.437445,0.155222 0.639705,0.423333 0.09407,0.122297 0.09407,0.230482 0,0.141111 -0.112889,0.249297 -0.108185,0.108185 -0.254,0.108185 -0.06115,0 -0.390408,-0.221074 -0.324556,-0.221075 -0.743186,-0.221075 -0.639704,0 -0.898408,0.348075 -0.07526,0.09878 -0.07526,0.178741 0,0.338667 0.587964,0.484482 0.197556,0.04704 0.470371,0.04704 0.790223,0 1.42052,0.390408 0.733778,0.456259 0.733778,1.194742 z"
         style="font-style:normal;font-variant:normal;font-weight:normal;font-stretch:normal;font-size:11.2889px;font-family:Monofur;-inkscape-font-specification:Monofur;stroke-width:0.264583"
         id="path1221" />
      <path
         d="m 45.334848,57.339063 q 0,0.08937 -0.05645,0.192852 -0.324555,0.564445 -0.973667,0.898408 -0.616186,0.324556 -1.29352,0.324556 -1.058334,0 -1.825039,-0.700853 -0.794927,-0.719667 -0.794927,-1.768594 0,-1.048927 0.794927,-1.768594 0.766705,-0.700853 1.825039,-0.700853 0.385704,0 0.804334,0.136408 0.470371,0.155222 0.936038,0.493889 0.578556,0.423334 0.578556,0.804334 0,0.188149 -0.183444,0.286926 l -3.565411,1.919113 q 0.578556,0.592668 1.429927,0.592668 0.907816,0 1.467557,-0.630297 0.06585,-0.08467 0.197556,-0.258704 0.136407,-0.174037 0.29163,-0.174037 0.141111,0 0.254,0.103481 0.112889,0.103482 0.112889,0.249297 z m -0.889001,-2.224854 q -0.573852,-0.592668 -1.434631,-0.592668 -0.762001,0 -1.326446,0.49389 -0.587963,0.517408 -0.587963,1.270001 0,0.301037 0.103481,0.573852 z"
         style="font-style:normal;font-variant:normal;font-weight:normal;font-stretch:normal;font-size:11.2889px;font-family:Monofur;-inkscape-font-specification:Monofur;stroke-width:0.264583"
         id="path1223" />
      <path
         d="m 50.504221,58.402101 q 0,0.352778 -0.352778,0.352778 -0.258704,0 -0.324556,-0.225778 -0.02822,-0.09878 -0.02822,-0.442149 -0.639704,0.667927 -1.528705,0.667927 -0.96426,0 -1.613372,-0.762001 -0.620889,-0.729075 -0.620889,-1.707446 0,-0.978371 0.620889,-1.707446 0.649112,-0.762001 1.613372,-0.762001 0.889001,0 1.528705,0.667927 v -2.431818 q 0,-0.352778 0.352779,-0.352778 0.352778,0 0.352778,0.352778 z m -0.705557,-2.116669 q 0,-0.686741 -0.413926,-1.204149 -0.446852,-0.559742 -1.114779,-0.559742 -0.667926,0 -1.114779,0.559742 -0.413926,0.517408 -0.413926,1.204149 0,0.686741 0.413926,1.204149 0.446853,0.559742 1.114779,0.559742 0.667927,0 1.114779,-0.559742 0.413926,-0.517408 0.413926,-1.204149 z"
         style="font-style:normal;font-variant:normal;font-weight:normal;font-stretch:normal;font-size:11.2889px;font-family:Monofur;-inkscape-font-specification:Monofur;stroke-width:0.264583"
         id="path1225" />
      <path
         d="m 62.268198,57.470767 q 0,0.103481 -0.07996,0.221074 -0.32926,0.470371 -0.893705,0.766704 -0.559741,0.296334 -1.138298,0.296334 -1.274705,0 -2.097854,-1.157112 -0.733778,-1.03952 -0.733778,-2.370669 0,-1.33115 0.733778,-2.370669 0.823149,-1.157113 2.097854,-1.157113 0.578557,0 1.138298,0.296334 0.564445,0.296334 0.893705,0.766704 0.07996,0.117593 0.07996,0.221075 0,0.141111 -0.112889,0.249296 -0.108186,0.108186 -0.254001,0.108186 -0.08937,0 -0.21637,-0.08467 -0.122297,-0.08937 -0.145815,-0.169334 -0.0047,-0.0094 -0.09878,-0.108185 -0.573853,-0.573852 -1.284113,-0.573852 -0.653815,0 -1.199445,0.503296 -0.484482,0.442149 -0.724371,1.114779 -0.20226,0.564445 -0.20226,1.20415 0,0.639704 0.20226,1.204149 0.239889,0.67263 0.719667,1.114779 0.54563,0.503297 1.204149,0.503297 0.705557,0 1.284113,-0.573853 0.04233,-0.03293 0.09878,-0.103481 0.0047,-0.07056 0.141111,-0.16463 0.141111,-0.09407 0.221074,-0.09407 0.145815,0 0.254001,0.108185 0.112889,0.108185 0.112889,0.249297 z"
         style="font-style:normal;font-variant:normal;font-weight:normal;font-stretch:normal;font-size:11.2889px;font-family:Monofur;-inkscape-font-specification:Monofur;stroke-width:0.264583"
         id="path1227" />
      <path
         d="m 67.907945,56.285432 q 0,1.020705 -0.724371,1.745076 -0.724371,0.724371 -1.745076,0.724371 -1.020705,0 -1.745076,-0.724371 -0.724371,-0.724371 -0.724371,-1.745076 0,-1.020705 0.724371,-1.745076 0.724371,-0.724371 1.745076,-0.724371 1.020705,0 1.745076,0.724371 0.724371,0.724371 0.724371,1.745076 z m -0.705556,0 q 0,-0.729075 -0.517408,-1.246483 -0.517408,-0.517408 -1.246483,-0.517408 -0.729075,0 -1.246483,0.517408 -0.517408,0.517408 -0.517408,1.246483 0,0.729075 0.517408,1.246483 0.517408,0.517408 1.246483,0.517408 0.729075,0 1.246483,-0.517408 0.517408,-0.517408 0.517408,-1.246483 z"
         style="font-style:normal;font-variant:normal;font-weight:normal;font-stretch:normal;font-size:11.2889px;font-family:Monofur;-inkscape-font-specification:Monofur;stroke-width:0.264583"
         id="path1229" />
      <path
         d="m 73.082025,58.402101 q 0,0.352778 -0.352778,0.352778 -0.258704,0 -0.324556,-0.225778 -0.02822,-0.09878 -0.02822,-0.442149 -0.639704,0.667927 -1.528705,0.667927 -0.964261,0 -1.613372,-0.762001 -0.62089,-0.729075 -0.62089,-1.707446 0,-0.978371 0.62089,-1.707446 0.649111,-0.762001 1.613372,-0.762001 0.889001,0 1.528705,0.667927 v -2.431818 q 0,-0.352778 0.352778,-0.352778 0.352778,0 0.352778,0.352778 z m -0.705556,-2.116669 q 0,-0.686741 -0.413926,-1.204149 -0.446853,-0.559742 -1.114779,-0.559742 -0.667927,0 -1.114779,0.559742 -0.413927,0.517408 -0.413927,1.204149 0,0.686741 0.413927,1.204149 0.446852,0.559742 1.114779,0.559742 0.667926,0 1.114779,-0.559742 0.413926,-0.517408 0.413926,-1.204149 z"
         style="font-style:normal;font-variant:normal;font-weight:normal;font-stretch:normal;font-size:11.2889px;font-family:Monofur;-inkscape-font-specification:Monofur;stroke-width:0.264583"
         id="path1231" />
      <path
         d="m 79.201547,57.339063 q 0,0.08937 -0.05644,0.192852 -0.324556,0.564445 -0.973668,0.898408 -0.616186,0.324556 -1.29352,0.324556 -1.058334,0 -1.825039,-0.700853 -0.794926,-0.719667 -0.794926,-1.768594 0,-1.048927 0.794926,-1.768594 0.766705,-0.700853 1.825039,-0.700853 0.385704,0 0.804334,0.136408 0.470371,0.155222 0.936038,0.493889 0.578556,0.423334 0.578556,0.804334 0,0.188149 -0.183444,0.286926 l -3.565411,1.919113 q 0.578556,0.592668 1.429927,0.592668 0.907816,0 1.467557,-0.630297 0.06585,-0.08467 0.197556,-0.258704 0.136408,-0.174037 0.29163,-0.174037 0.141111,0 0.254,0.103481 0.112889,0.103482 0.112889,0.249297 z m -0.889001,-2.224854 q -0.573852,-0.592668 -1.434631,-0.592668 -0.762001,0 -1.326446,0.49389 -0.587963,0.517408 -0.587963,1.270001 0,0.301037 0.103481,0.573852 z"
         style="font-style:normal;font-variant:normal;font-weight:normal;font-stretch:normal;font-size:11.2889px;font-family:Monofur;-inkscape-font-specification:Monofur;stroke-width:0.264583"
         id="path1233" />
      <path
         d="m 90.485746,60.51877 q 0,0.352778 -0.352778,0.352778 -0.827853,0 -1.462854,-0.67263 -0.536223,-0.569149 -0.804334,-1.448743 -1.105371,-0.08937 -1.763891,-1.288816 -0.555037,-1.016001 -0.555037,-2.234261 0,-1.265298 0.592667,-2.300114 0.705556,-1.227668 1.87678,-1.227668 1.171223,0 1.876779,1.227668 0.592668,1.034816 0.592668,2.300114 0,1.095964 -0.451556,2.036705 -0.526816,1.105372 -1.45815,1.406409 0.197556,0.58326 0.569149,0.997186 0.451556,0.498594 0.987779,0.498594 0.352778,0 0.352778,0.352778 z m -0.705557,-5.291672 q 0,-0.616186 -0.155222,-1.157113 -0.183445,-0.639704 -0.564445,-1.100667 -0.470371,-0.564445 -1.044223,-0.564445 -0.573853,0 -1.044224,0.564445 -0.381,0.460963 -0.564445,1.095964 -0.155222,0.54563 -0.155222,1.161816 0,0.874889 0.32926,1.632186 0.404519,0.921927 1.124186,1.143002 -0.04233,-0.32926 -0.04233,-0.65852 0,-0.352778 0.352778,-0.352778 0.352778,0 0.352778,0.352778 0,0.319853 0.04233,0.625594 0.682038,-0.268112 1.058335,-1.152409 0.310444,-0.738482 0.310444,-1.589853 z"
         style="font-style:normal;font-variant:normal;font-weight:normal;font-stretch:normal;font-size:11.2889px;font-family:Monofur;-inkscape-font-specification:Monofur;stroke-width:0.264583"
         id="path1235" />
      <path
         d="m 95.895008,56.520617 q 0,0.926631 -0.653816,1.580447 -0.653815,0.653815 -1.580446,0.653815 -0.92663,0 -1.580446,-0.653815 -0.653815,-0.653816 -0.653815,-1.580447 v -2.351854 q 0,-0.352778 0.352778,-0.352778 0.352778,0 0.352778,0.352778 v 2.351854 q 0,0.630297 0.446852,1.081853 0.451556,0.446853 1.081853,0.446853 0.630297,0 1.077149,-0.446853 0.451556,-0.451556 0.451556,-1.081853 v -2.351854 q 0,-0.352778 0.352778,-0.352778 0.352779,0 0.352779,0.352778 z"
         style="font-style:normal;font-variant:normal;font-weight:normal;font-stretch:normal;font-size:11.2889px;font-family:Monofur;-inkscape-font-specification:Monofur;stroke-width:0.264583"
         id="path1237" />
      <path
         d="m 101.53946,58.402101 q 0,0.352778 -0.35278,0.352778 -0.36218,0 -0.35277,-0.498593 -0.69615,0.498593 -1.646302,0.498593 -0.870186,0 -1.556927,-0.437445 -0.794927,-0.508 -0.794927,-1.326446 0,-0.818445 0.794927,-1.326445 0.691445,-0.437445 1.556927,-0.437445 0.950152,0 1.646302,0.498593 v -0.145815 q 0,-0.206963 -0.14582,-0.41863 -0.43274,-0.639705 -1.500482,-0.639705 -0.611482,0 -1.208853,0.348075 -0.122296,0.07055 -0.211667,0.07055 -0.141111,0 -0.249296,-0.108185 -0.103482,-0.112889 -0.103482,-0.258704 0,-0.348074 0.738482,-0.578556 0.573853,-0.178741 1.034816,-0.178741 0.865482,0 1.556932,0.437445 0.79492,0.508 0.79492,1.326446 z m -0.70555,-1.411113 q 0,-0.333963 -0.31986,-0.616185 -0.26811,-0.235186 -0.634997,-0.343371 -0.319852,-0.09878 -0.691445,-0.09878 -1.09126,0 -1.519298,0.667927 -0.127,0.197555 -0.127,0.390407 0,0.192852 0.127,0.390408 0.428038,0.667927 1.519298,0.667927 0.371593,0 0.691445,-0.09878 0.366887,-0.108185 0.634997,-0.343371 0.31986,-0.282222 0.31986,-0.616186 z"
         style="font-style:normal;font-variant:normal;font-weight:normal;font-stretch:normal;font-size:11.2889px;font-family:Monofur;-inkscape-font-specification:Monofur;stroke-width:0.264583"
         id="path1239" />
      <path
         d="m 107.4238,57.691841 q 0,0.09878 -0.0753,0.21637 -0.2493,0.381001 -0.74319,0.62089 -0.47037,0.225778 -0.95015,0.225778 -0.87489,0 -1.49577,-0.62089 -0.62089,-0.620889 -0.62089,-1.495779 v -4.586116 q 0,-0.352778 0.35277,-0.352778 0.35278,0 0.35278,0.352778 v 4.586116 q 0,0.58326 0.41393,0.997186 0.41392,0.413927 0.99718,0.413927 0.51271,0 0.91252,-0.352778 0.40452,-0.357482 0.48919,-0.357482 0.14581,0 0.254,0.108185 0.11289,0.103482 0.11289,0.244593 z"
         style="font-style:normal;font-variant:normal;font-weight:normal;font-stretch:normal;font-size:11.2889px;font-family:Monofur;-inkscape-font-specification:Monofur;stroke-width:0.264583"
         id="path1241" />
      <path
         d="m 111.13032,52.235539 q 0,0.221074 -0.15993,0.371593 -0.15522,0.150519 -0.37629,0.150519 -0.22108,0 -0.381,-0.150519 -0.15523,-0.150519 -0.15523,-0.371593 0,-0.221074 0.15523,-0.376297 0.15992,-0.159926 0.381,-0.159926 0.22107,0 0.37629,0.159926 0.15993,0.155223 0.15993,0.376297 z m 1.22767,6.166562 q 0,0.352778 -0.35278,0.352778 h -1.41111 q -0.35278,0 -0.35278,-0.352778 v -3.88056 h -1.05834 q -0.35277,0 -0.35277,-0.352778 0,-0.352778 0.35277,-0.352778 h 1.41582 q 0.34807,0 0.34807,0.352778 v 3.88056 h 1.05834 q 0.35278,0 0.35278,0.352778 z"
         style="font-style:normal;font-variant:normal;font-weight:normal;font-stretch:normal;font-size:11.2889px;font-family:Monofur;-inkscape-font-specification:Monofur;stroke-width:0.264583"
         id="path1243" />
      <path
         d="m 118.7127,57.691841 q 0,0.09878 -0.0753,0.21637 -0.24929,0.381001 -0.74318,0.62089 -0.47037,0.225778 -0.95015,0.225778 -0.87489,0 -1.49578,-0.62089 -0.62089,-0.620889 -0.62089,-1.495779 v -2.116669 h -0.70556 q -0.35278,0 -0.35278,-0.352778 0,-0.352778 0.35278,-0.352778 h 0.70556 v -1.763891 q 0,-0.352778 0.35278,-0.352778 0.35277,0 0.35277,0.352778 v 1.763891 h 1.7639 q 0.35277,0 0.35277,0.352778 0,0.352778 -0.35277,0.352778 h -1.7639 v 2.116669 q 0,0.58326 0.41393,0.997186 0.41393,0.413927 0.99719,0.413927 0.39511,0 0.69144,-0.183445 0.14111,-0.08937 0.40452,-0.343371 0.18815,-0.183444 0.30574,-0.183444 0.14582,0 0.254,0.108185 0.11289,0.103482 0.11289,0.244593 z"
         style="font-style:normal;font-variant:normal;font-weight:normal;font-stretch:normal;font-size:11.2889px;font-family:Monofur;-inkscape-font-specification:Monofur;stroke-width:0.264583"
         id="path1245" />
      <path
         d="m 123.88207,54.168763 v 4.586116 q 0,0.87489 -0.62089,1.495779 -0.62088,0.62089 -1.49577,0.62089 -0.55504,0 -1.05364,-0.282223 -0.5174,-0.29163 -0.77611,-0.766704 -0.0517,-0.103482 -0.0517,-0.188149 0,-0.141111 0.11289,-0.244592 0.11289,-0.103482 0.254,-0.103482 0.15993,0 0.29633,0.178741 0.52682,0.700853 1.21827,0.700853 0.58326,0 0.99718,-0.413927 0.41393,-0.413926 0.41393,-0.997186 v -0.540926 q -0.60208,0.540926 -1.41111,0.540926 -0.87489,0 -1.49578,-0.62089 -0.62089,-0.620889 -0.62089,-1.495779 v -2.469447 q 0,-0.352778 0.35277,-0.352778 0.35278,0 0.35278,0.352778 v 2.469447 q 0,0.58326 0.41393,0.997186 0.41393,0.413927 0.99719,0.413927 0.58326,0 0.99718,-0.413927 0.41393,-0.413926 0.41393,-0.992482 v -2.474151 q 0,-0.352778 0.35278,-0.352778 0.35277,0 0.35277,0.352778 z"
         style="font-style:normal;font-variant:normal;font-weight:normal;font-stretch:normal;font-size:11.2889px;font-family:Monofur;-inkscape-font-specification:Monofur;stroke-width:0.264583"
         id="path1247" />
      <path
         d="m 135.64605,58.397397 q 0,0.145815 -0.10818,0.254 -0.10819,0.108186 -0.254,0.108186 -0.13641,0 -0.2446,-0.108186 l -2.77519,-2.775188 q -0.15522,-0.155222 -0.15522,-0.29163 0,-0.357481 0.42334,-0.357481 h 0.99248 q 0.58326,0 0.99718,-0.413927 0.41393,-0.413926 0.41393,-0.997186 0,-0.58326 -0.41393,-0.997186 -0.41392,-0.413926 -0.99718,-0.413926 h -1.6463 v 5.997228 q 0,0.352778 -0.35278,0.352778 -0.35278,0 -0.35278,-0.352778 v -6.35471 q 0,-0.348075 0.34808,-0.348075 h 2.00378 q 0.87489,0 1.49578,0.62089 0.62089,0.620889 0.62089,1.495779 0,0.87489 -0.62089,1.495779 -0.62089,0.62089 -1.49578,0.62089 h -0.20696 l 2.22015,2.22015 q 0.10818,0.108186 0.10818,0.244593 z"
         style="font-style:normal;font-variant:normal;font-weight:normal;font-stretch:normal;font-size:11.2889px;font-family:Monofur;-inkscape-font-specification:Monofur;stroke-width:0.264583"
         id="path1249" />
      <path
         d="m 141.2905,57.339063 q 0,0.08937 -0.0565,0.192852 -0.32455,0.564445 -0.97366,0.898408 -0.61619,0.324556 -1.29352,0.324556 -1.05834,0 -1.82504,-0.700853 -0.79493,-0.719667 -0.79493,-1.768594 0,-1.048927 0.79493,-1.768594 0.7667,-0.700853 1.82504,-0.700853 0.3857,0 0.80433,0.136408 0.47037,0.155222 0.93604,0.493889 0.57855,0.423334 0.57855,0.804334 0,0.188149 -0.18344,0.286926 l -3.56541,1.919113 q 0.57856,0.592668 1.42993,0.592668 0.90781,0 1.46755,-0.630297 0.0659,-0.08467 0.19756,-0.258704 0.13641,-0.174037 0.29163,-0.174037 0.14111,0 0.254,0.103481 0.11289,0.103482 0.11289,0.249297 z m -0.889,-2.224854 q -0.57386,-0.592668 -1.43463,-0.592668 -0.762,0 -1.32645,0.49389 -0.58796,0.517408 -0.58796,1.270001 0,0.301037 0.10348,0.573852 z"
         style="font-style:normal;font-variant:normal;font-weight:normal;font-stretch:normal;font-size:11.2889px;font-family:Monofur;-inkscape-font-specification:Monofur;stroke-width:0.264583"
         id="path1251" />
      <path
         d="m 146.93025,56.285432 q 0,0.978371 -0.62089,1.707446 -0.64911,0.762001 -1.61337,0.762001 -0.889,0 -1.52871,-0.667927 v 2.431818 q 0,0.352778 -0.35278,0.352778 -0.35277,0 -0.35277,-0.352778 v -6.350007 q 0,-0.352778 0.35277,-0.352778 0.25871,0 0.32456,0.225778 0.0282,0.09878 0.0282,0.442149 0.63971,-0.667927 1.52871,-0.667927 0.96426,0 1.61337,0.762001 0.62089,0.729075 0.62089,1.707446 z m -0.70556,0 q 0,-0.686741 -0.41392,-1.204149 -0.44686,-0.559742 -1.11478,-0.559742 -0.66793,0 -1.11478,0.559742 -0.41393,0.517408 -0.41393,1.204149 0,0.686741 0.41393,1.204149 0.44685,0.559742 1.11478,0.559742 0.66792,0 1.11478,-0.559742 0.41392,-0.517408 0.41392,-1.204149 z"
         style="font-style:normal;font-variant:normal;font-weight:normal;font-stretch:normal;font-size:11.2889px;font-family:Monofur;-inkscape-font-specification:Monofur;stroke-width:0.264583"
         id="path1253" />
      <path
         d="m 152.57469,56.285432 q 0,1.020705 -0.72437,1.745076 -0.72437,0.724371 -1.74508,0.724371 -1.0207,0 -1.74507,-0.724371 -0.72437,-0.724371 -0.72437,-1.745076 0,-1.020705 0.72437,-1.745076 0.72437,-0.724371 1.74507,-0.724371 1.02071,0 1.74508,0.724371 0.72437,0.724371 0.72437,1.745076 z m -0.70556,0 q 0,-0.729075 -0.5174,-1.246483 -0.51741,-0.517408 -1.24649,-0.517408 -0.72907,0 -1.24648,0.517408 -0.51741,0.517408 -0.51741,1.246483 0,0.729075 0.51741,1.246483 0.51741,0.517408 1.24648,0.517408 0.72908,0 1.24649,-0.517408 0.5174,-0.517408 0.5174,-1.246483 z"
         style="font-style:normal;font-variant:normal;font-weight:normal;font-stretch:normal;font-size:11.2889px;font-family:Monofur;-inkscape-font-specification:Monofur;stroke-width:0.264583"
         id="path1255" />
      <path
         d="m 158.22385,54.954283 q 0,0.145815 -0.11289,0.254 -0.10819,0.103481 -0.254,0.103481 -0.13171,0 -0.26341,-0.136407 -0.64911,-0.653816 -1.37348,-0.653816 -0.72908,0 -1.24648,0.517408 -0.51741,0.517408 -0.51741,1.246483 v 2.116669 q 0,0.352778 -0.35278,0.352778 -0.35278,0 -0.35278,-0.352778 v -4.233338 q 0,-0.352778 0.35278,-0.352778 0.27281,0 0.33867,0.263408 0.0188,0.08467 0.0141,0.479778 0.72437,-0.743186 1.76389,-0.743186 0.53622,0 1.06774,0.244593 0.55974,0.254 0.85137,0.67263 0.0847,0.122297 0.0847,0.221075 z"
         style="font-style:normal;font-variant:normal;font-weight:normal;font-stretch:normal;font-size:11.2889px;font-family:Monofur;-inkscape-font-specification:Monofur;stroke-width:0.264583"
         id="path1257" />
      <path
         d="m 163.8683,57.691841 q 0,0.09878 -0.0753,0.21637 -0.24929,0.381001 -0.74318,0.62089 -0.47037,0.225778 -0.95015,0.225778 -0.87489,0 -1.49578,-0.62089 -0.62089,-0.620889 -0.62089,-1.495779 v -2.116669 h -0.70556 q -0.35277,0 -0.35277,-0.352778 0,-0.352778 0.35277,-0.352778 h 0.70556 v -1.763891 q 0,-0.352778 0.35278,-0.352778 0.35278,0 0.35278,0.352778 v 1.763891 h 1.76389 q 0.35277,0 0.35277,0.352778 0,0.352778 -0.35277,0.352778 h -1.76389 v 2.116669 q 0,0.58326 0.41392,0.997186 0.41393,0.413927 0.99719,0.413927 0.39511,0 0.69144,-0.183445 0.14111,-0.08937 0.40452,-0.343371 0.18815,-0.183444 0.30574,-0.183444 0.14582,0 0.254,0.108185 0.11289,0.103482 0.11289,0.244593 z"
         style="font-style:normal;font-variant:normal;font-weight:normal;font-stretch:normal;font-size:11.2889px;font-family:Monofur;-inkscape-font-specification:Monofur;stroke-width:0.264583"
         id="path1259" />
    </g>
    <text
       xml:space="preserve"
       id="text1147"
       style="font-size:3.175px;line-height:1.25;font-family:monospace;-inkscape-font-specification:monospace;letter-spacing:0px;word-spacing:0px;white-space:pre;shape-inside:url(#rect1149);"
       transform="translate(27.068879,16.462754)"><tspan
         x="-15.046875"
         y="70.94585"><tspan
           style="shape-inside:url(#rect1149)">This file provides a focused overview of the files in the project with the lowest maintainability </tspan></tspan><tspan
         x="-15.046875"
         y="74.9146"><tspan
           style="shape-inside:url(#rect1149)">indices (MIs) and functions with the highest cyclomatic complexities (CCs) to assist with high-</tspan></tspan><tspan
         x="-15.046875"
         y="78.88335"><tspan
           style="shape-inside:url(#rect1149)">level code quality management. </tspan><tspan
           style="font-weight:bold">Quantitative code metrics are an imperfect tool, and do not give an </tspan></tspan><tspan
         x="-15.046875"
         y="82.8521"><tspan
           style="font-weight:bold">accurate picture of programmer skill or intent.</tspan></tspan></text>
    <rect
       style="fill:#ff04ff;stroke-width:1.11066;fill-opacity:1"
       id="rect1161"
       width="10"
       height="10"
       x="11.65045"
       y="210.88322" />
    <g
       id="g1231"
       transform="translate(-1.5875,1.0197244)">
      <text
         xml:space="preserve"
         style="font-size:3.52778px;line-height:1.25;font-family:monospace;-inkscape-font-specification:monospace;letter-spacing:0px;word-spacing:0px;stroke-width:0.264583"
         x="27.050354"
         y="213.27014"
         id="text1203"><tspan
           sodipodi:role="line"
           id="tspan1201"
           x="27.050354"
           y="213.27014"
           style="font-size:3.52778px;stroke-width:0.264583">{{ccq1}} - {{ccn1}}</tspan></text>
      <text
         xml:space="preserve"
         style="font-size:3.52778px;line-height:1.25;font-family:monospace;-inkscape-font-specification:monospace;letter-spacing:0px;word-spacing:0px;fill:#666666;stroke-width:0.264583"
         x="27.050354"
         y="218.56181"
         id="text1225"><tspan
           sodipodi:role="line"
           id="tspan1223"
           x="27.050354"
           y="218.56181"
           style="font-size:3.52778px;fill:#666666;stroke-width:0.264583">{{ccf1}}</tspan></text>
    </g>
    <text
       xml:space="preserve"
       style="font-size:3.52778px;line-height:1.25;font-family:monospace;-inkscape-font-specification:monospace;letter-spacing:0px;word-spacing:0px;fill:#ffffff;stroke-width:0.264583"
       x="16.649588"
       y="216.9357"
       id="text1235"><tspan
         sodipodi:role="line"
         id="tspan1233"
         x="16.649588"
         y="216.9357"
         style="font-size:3.52778px;text-align:center;text-anchor:middle;fill:#ffffff;stroke-width:0.264583">{{cc1}}</tspan></text>
    <rect
       style="fill:#ff05ff;stroke-width:1.11066;fill-opacity:1"
       id="rect1237"
       width="10"
       height="10"
       x="11.65045"
       y="226.75824" />
    <g
       id="g1247"
       transform="translate(-1.5875,16.894725)">
      <text
         xml:space="preserve"
         style="font-size:3.52778px;line-height:1.25;font-family:monospace;-inkscape-font-specification:monospace;letter-spacing:0px;word-spacing:0px;stroke-width:0.264583"
         x="27.050354"
         y="213.27014"
         id="text1241"><tspan
           sodipodi:role="line"
           id="tspan1239"
           x="27.050354"
           y="213.27014"
           style="font-size:3.52778px;stroke-width:0.264583">{{ccq2}} - {{ccn2}}</tspan></text>
      <text
         xml:space="preserve"
         style="font-size:3.52778px;line-height:1.25;font-family:monospace;-inkscape-font-specification:monospace;letter-spacing:0px;word-spacing:0px;fill:#666666;stroke-width:0.264583"
         x="27.050354"
         y="218.56181"
         id="text1245"><tspan
           sodipodi:role="line"
           id="tspan1243"
           x="27.050354"
           y="218.56181"
           style="font-size:3.52778px;fill:#666666;stroke-width:0.264583">{{ccf2}}</tspan></text>
    </g>
    <text
       xml:space="preserve"
       style="font-size:3.52778px;line-height:1.25;font-family:monospace;-inkscape-font-specification:monospace;letter-spacing:0px;word-spacing:0px;fill:#ffffff;stroke-width:0.264583"
       x="16.649588"
       y="232.81071"
       id="text1251"><tspan
         sodipodi:role="line"
         id="tspan1249"
         x="16.649588"
         y="232.81071"
         style="font-size:3.52778px;text-align:center;text-anchor:middle;fill:#ffffff;stroke-width:0.264583">{{cc2}}</tspan></text>
    <rect
       style="fill:#ff06ff;stroke-width:1.11066;fill-opacity:1"
       id="rect1253"
       width="10"
       height="10"
       x="11.65045"
       y="242.63326" />
    <g
       id="g1263"
       transform="translate(-1.5875,32.769726)">
      <text
         xml:space="preserve"
         style="font-size:3.52778px;line-height:1.25;font-family:monospace;-inkscape-font-specification:monospace;letter-spacing:0px;word-spacing:0px;stroke-width:0.264583"
         x="27.050354"
         y="213.27014"
         id="text1257"><tspan
           sodipodi:role="line"
           id="tspan1255"
           x="27.050354"
           y="213.27014"
           style="font-size:3.52778px;stroke-width:0.264583">{{ccq3}} - {{ccn3}}</tspan></text>
      <text
         xml:space="preserve"
         style="font-size:3.52778px;line-height:1.25;font-family:monospace;-inkscape-font-specification:monospace;letter-spacing:0px;word-spacing:0px;fill:#666666;stroke-width:0.264583"
         x="27.050354"
         y="218.56181"
         id="text1261"><tspan
           sodipodi:role="line"
           id="tspan1259"
           x="27.050354"
           y="218.56181"
           style="font-size:3.52778px;fill:#666666;stroke-width:0.264583">{{ccf3}}</tspan></text>
    </g>
    <text
       xml:space="preserve"
       style="font-size:3.52778px;line-height:1.25;font-family:monospace;-inkscape-font-specification:monospace;letter-spacing:0px;word-spacing:0px;fill:#ffffff;stroke-width:0.264583"
       x="16.649588"
       y="248.68573"
       id="text1267"><tspan
         sodipodi:role="line"
         id="tspan1265"
         x="16.649588"
         y="248.68573"
         style="font-size:3.52778px;text-align:center;text-anchor:middle;fill:#ffffff;stroke-width:0.264583">{{cc3}}</tspan></text>
    <rect
       style="fill:#ff07ff;stroke-width:1.11066;fill-opacity:1"
       id="rect1269"
       width="10"
       height="10"
       x="11.65045"
       y="258.50827" />
    <g
       id="g1279"
       transform="translate(-1.5875,48.644727)">
      <text
         xml:space="preserve"
         style="font-size:3.52778px;line-height:1.25;font-family:monospace;-inkscape-font-specification:monospace;letter-spacing:0px;word-spacing:0px;stroke-width:0.264583"
         x="27.050354"
         y="213.27014"
         id="text1273"><tspan
           sodipodi:role="line"
           id="tspan1271"
           x="27.050354"
           y="213.27014"
           style="font-size:3.52778px;stroke-width:0.264583">{{ccq4}} - {{ccn4}}</tspan></text>
      <text
         xml:space="preserve"
         style="font-size:3.52778px;line-height:1.25;font-family:monospace;-inkscape-font-specification:monospace;letter-spacing:0px;word-spacing:0px;fill:#666666;stroke-width:0.264583"
         x="27.050354"
         y="218.56181"
         id="text1277"><tspan
           sodipodi:role="line"
           id="tspan1275"
           x="27.050354"
           y="218.56181"
           style="font-size:3.52778px;fill:#666666;stroke-width:0.264583">{{ccf4}}</tspan></text>
    </g>
    <text
       xml:space="preserve"
       style="font-size:3.52778px;line-height:1.25;font-family:monospace;-inkscape-font-specification:monospace;letter-spacing:0px;word-spacing:0px;fill:#ffffff;stroke-width:0.264583"
       x="16.649588"
       y="264.56073"
       id="text1283"><tspan
         sodipodi:role="line"
         id="tspan1281"
         x="16.649588"
         y="264.56073"
         style="font-size:3.52778px;text-align:center;text-anchor:middle;fill:#ffffff;stroke-width:0.264583">{{cc4}}</tspan></text>
    <rect
       style="fill:#ff08ff;stroke-width:1.11066;fill-opacity:1"
       id="rect1285"
       width="10"
       height="10"
       x="106.90044"
       y="210.88322" />
    <g
       id="g1295"
       transform="translate(93.662505,1.0197244)">
      <text
         xml:space="preserve"
         style="font-size:3.52778px;line-height:1.25;font-family:monospace;-inkscape-font-specification:monospace;letter-spacing:0px;word-spacing:0px;stroke-width:0.264583"
         x="27.050354"
         y="213.27014"
         id="text1289"><tspan
           sodipodi:role="line"
           id="tspan1287"
           x="27.050354"
           y="213.27014"
           style="font-size:3.52778px;stroke-width:0.264583">{{ccq5}} - {{ccn5}}</tspan></text>
      <text
         xml:space="preserve"
         style="font-size:3.52778px;line-height:1.25;font-family:monospace;-inkscape-font-specification:monospace;letter-spacing:0px;word-spacing:0px;fill:#666666;stroke-width:0.264583"
         x="27.050354"
         y="218.56181"
         id="text1293"><tspan
           sodipodi:role="line"
           id="tspan1291"
           x="27.050354"
           y="218.56181"
           style="font-size:3.52778px;fill:#666666;stroke-width:0.264583">{{ccf5}}</tspan></text>
    </g>
    <text
       xml:space="preserve"
       style="font-size:3.52778px;line-height:1.25;font-family:monospace;-inkscape-font-specification:monospace;letter-spacing:0px;word-spacing:0px;fill:#ffffff;stroke-width:0.264583"
       x="111.89957"
       y="216.9357"
       id="text1299"><tspan
         sodipodi:role="line"
         id="tspan1297"
         x="111.89957"
         y="216.9357"
         style="font-size:3.52778px;text-align:center;text-anchor:middle;fill:#ffffff;stroke-width:0.264583">{{cc5}}</tspan></text>
    <rect
       style="fill:#ff09ff;stroke-width:1.11066;fill-opacity:1"
       id="rect1301"
       width="10"
       height="10"
       x="106.90044"
       y="226.75824" />
    <g
       id="g1311"
       transform="translate(93.662505,16.894725)">
      <text
         xml:space="preserve"
         style="font-size:3.52778px;line-height:1.25;font-family:monospace;-inkscape-font-specification:monospace;letter-spacing:0px;word-spacing:0px;stroke-width:0.264583"
         x="27.050354"
         y="213.27014"
         id="text1305"><tspan
           sodipodi:role="line"
           id="tspan1303"
           x="27.050354"
           y="213.27014"
           style="font-size:3.52778px;stroke-width:0.264583">{{ccq6}} - {{ccn6}}</tspan></text>
      <text
         xml:space="preserve"
         style="font-size:3.52778px;line-height:1.25;font-family:monospace;-inkscape-font-specification:monospace;letter-spacing:0px;word-spacing:0px;fill:#666666;stroke-width:0.264583"
         x="27.050354"
         y="218.56181"
         id="text1309"><tspan
           sodipodi:role="line"
           id="tspan1307"
           x="27.050354"
           y="218.56181"
           style="font-size:3.52778px;fill:#666666;stroke-width:0.264583">{{ccf6}}</tspan></text>
    </g>
    <text
       xml:space="preserve"
       style="font-size:3.52778px;line-height:1.25;font-family:monospace;-inkscape-font-specification:monospace;letter-spacing:0px;word-spacing:0px;fill:#ffffff;stroke-width:0.264583"
       x="111.89957"
       y="232.81071"
       id="text1315"><tspan
         sodipodi:role="line"
         id="tspan1313"
         x="111.89957"
         y="232.81071"
         style="font-size:3.52778px;text-align:center;text-anchor:middle;fill:#ffffff;stroke-width:0.264583">{{cc6}}</tspan></text>
    <rect
       style="fill:#ff0aff;stroke-width:1.11066;fill-opacity:1"
       id="rect1317"
       width="10"
       height="10"
       x="106.90044"
       y="242.63326" />
    <g
       id="g1327"
       transform="translate(93.662505,32.769726)">
      <text
         xml:space="preserve"
         style="font-size:3.52778px;line-height:1.25;font-family:monospace;-inkscape-font-specification:monospace;letter-spacing:0px;word-spacing:0px;stroke-width:0.264583"
         x="27.050354"
         y="213.27014"
         id="text1321"><tspan
           sodipodi:role="line"
           id="tspan1319"
           x="27.050354"
           y="213.27014"
           style="font-size:3.52778px;stroke-width:0.264583">{{ccq7}} - {{ccn7}}</tspan></text>
      <text
         xml:space="preserve"
         style="font-size:3.52778px;line-height:1.25;font-family:monospace;-inkscape-font-specification:monospace;letter-spacing:0px;word-spacing:0px;fill:#666666;stroke-width:0.264583"
         x="27.050354"
         y="218.56181"
         id="text1325"><tspan
           sodipodi:role="line"
           id="tspan1323"
           x="27.050354"
           y="218.56181"
           style="font-size:3.52778px;fill:#666666;stroke-width:0.264583">{{ccf7}}</tspan></text>
    </g>
    <text
       xml:space="preserve"
       style="font-size:3.52778px;line-height:1.25;font-family:monospace;-inkscape-font-specification:monospace;letter-spacing:0px;word-spacing:0px;fill:#ffffff;stroke-width:0.264583"
       x="111.89957"
       y="248.68573"
       id="text1331"><tspan
         sodipodi:role="line"
         id="tspan1329"
         x="111.89957"
         y="248.68573"
         style="font-size:3.52778px;text-align:center;text-anchor:middle;fill:#ffffff;stroke-width:0.264583">{{cc7}}</tspan></text>
    <rect
       style="fill:#ff0bff;stroke-width:1.11066;fill-opacity:1"
       id="rect1333"
       width="10"
       height="10"
       x="106.90044"
       y="258.50827" />
    <g
       id="g1343"
       transform="translate(93.662505,48.644727)">
      <text
         xml:space="preserve"
         style="font-size:3.52778px;line-height:1.25;font-family:monospace;-inkscape-font-specification:monospace;letter-spacing:0px;word-spacing:0px;stroke-width:0.264583"
         x="27.050354"
         y="213.27014"
         id="text1337"><tspan
           sodipodi:role="line"
           id="tspan1335"
           x="27.050354"
           y="213.27014"
           style="font-size:3.52778px;stroke-width:0.264583">{{ccq8}} - {{ccn8}}</tspan></text>
      <text
         xml:space="preserve"
         style="font-size:3.52778px;line-height:1.25;font-family:monospace;-inkscape-font-specification:monospace;letter-spacing:0px;word-spacing:0px;fill:#666666;stroke-width:0.264583"
         x="27.050354"
         y="218.56181"
         id="text1341"><tspan
           sodipodi:role="line"
           id="tspan1339"
           x="27.050354"
           y="218.56181"
           style="font-size:3.52778px;fill:#666666;stroke-width:0.264583">{{ccf8}}</tspan></text>
    </g>
    <text
       xml:space="preserve"
       style="font-size:3.52778px;line-height:1.25;font-family:monospace;-inkscape-font-specification:monospace;letter-spacing:0px;word-spacing:0px;fill:#ffffff;stroke-width:0.264583"
       x="111.89957"
       y="264.56073"
       id="text1347"><tspan
         sodipodi:role="line"
         id="tspan1345"
         x="111.89957"
         y="264.56073"
         style="font-size:3.52778px;text-align:center;text-anchor:middle;fill:#ffffff;stroke-width:0.264583">{{cc8}}</tspan></text>
    <g
       id="g1372"
       transform="translate(0,26.049011)">
      <text
         xml:space="preserve"
         style="font-size:8.46667px;line-height:1.25;font-family:monospace;-inkscape-font-specification:monospace;letter-spacing:0px;word-spacing:0px;stroke-width:0.264583"
         x="37.073029"
         y="124.98293"
         id="text1366"><tspan
           sodipodi:role="line"
           id="tspan1364"
           x="37.073029"
           y="124.98293"
           style="font-size:8.46667px;stroke-width:0.264583"><tspan
             style="font-weight:bold;font-size:8.46667px"
             id="tspan1362">{{mq2}}</tspan></tspan></text>
      <text
         xml:space="preserve"
         style="font-size:3.88056px;line-height:1.25;font-family:monospace;-inkscape-font-specification:monospace;letter-spacing:0px;word-spacing:0px;stroke-width:0.264583"
         x="37.381882"
         y="132.92039"
         id="text1370"><tspan
           sodipodi:role="line"
           id="tspan1368"
           x="37.381882"
           y="132.92039"
           style="font-size:3.88056px;stroke-width:0.264583">{{mf_2}}</tspan></text>
    </g>
    <text
       xml:space="preserve"
       style="font-size:8.46667px;line-height:1.25;font-family:monospace;-inkscape-font-specification:monospace;letter-spacing:0px;word-spacing:0px;stroke-width:0.264583"
       x="37.073029"
       y="174.84444"
       id="text1378"><tspan
         sodipodi:role="line"
         id="tspan1376"
         x="37.073029"
         y="174.84444"
         style="font-size:8.46667px;stroke-width:0.264583"><tspan
           style="font-weight:bold;font-size:8.46667px"
           id="tspan1374">{{mq3}}</tspan></tspan></text>
    <text
       xml:space="preserve"
       style="font-size:3.88056px;line-height:1.25;font-family:monospace;-inkscape-font-specification:monospace;letter-spacing:0px;word-spacing:0px;stroke-width:0.264583"
       x="37.381882"
       y="182.78191"
       id="text1382"><tspan
         sodipodi:role="line"
         id="tspan1380"
         x="37.381882"
         y="182.78191"
         style="font-size:3.88056px;stroke-width:0.264583">{{mf_3}}</tspan></text>
    <rect
       style="fill:#333333;stroke:none;stroke-width:0.56848"
       id="rect833-6"
       width="27.855516"
       height="27.855516"
       x="171.48904"
       y="10.622704" />
    <rect
       style="fill:#c83737;stroke:none;stroke-width:0.568479"
       id="rect833-3-7"
       width="5.6847992"
       height="5.6847997"
       x="171.48904"
       y="10.622703" />
    <rect
       style="fill:#ff6600;stroke:none;stroke-width:0.568479"
       id="rect833-3-6-5"
       width="5.6847992"
       height="5.6847997"
       x="171.48904"
       y="16.307606" />
    <rect
       style="fill:#ffcc00;stroke:none;stroke-width:0.568479"
       id="rect833-3-6-7-3"
       width="5.6847992"
       height="5.6847997"
       x="171.48904"
       y="21.992405" />
    <rect
       style="fill:#ccff00;stroke:none;stroke-width:0.0847183"
       id="rect833-3-6-7-5-5"
       width="5.6847987"
       height="5.6847992"
       x="171.48904"
       y="27.677204" />
    <rect
       style="fill:#3771c8;stroke:none;stroke-width:0.0847183"
       id="rect833-3-6-7-5-3-6"
       width="5.6847987"
       height="5.6847992"
       x="171.48904"
       y="32.793423" />
    <g
       aria-label="He"
       id="text912-2"
       style="font-size:10.5833px;line-height:1.25;font-family:'Century Gothic';-inkscape-font-specification:'Century Gothic';letter-spacing:0px;word-spacing:0px;fill:#ffffff;stroke-width:0.092468"
       transform="matrix(1.6266178,0,0,1.6266178,110.96351,-30.270296)">
      <path
         d="m 47.420246,40.70761 q 0,0.330728 -0.330728,0.330728 -0.330728,0 -0.330728,-0.330728 v -2.645825 h -2.42534 v 2.645825 q 0,0.330728 -0.330728,0.330728 -0.330728,0 -0.330728,-0.330728 v -5.953106 q 0,-0.330729 0.330728,-0.330729 0.330728,0 0.330728,0.330729 v 2.645824 h 2.42534 v -2.645824 q 0,-0.330729 0.330728,-0.330729 0.330728,0 0.330728,0.330729 z"
         style="font-style:normal;font-variant:normal;font-weight:normal;font-stretch:normal;font-family:Monofur;-inkscape-font-specification:Monofur;fill:#ffffff;stroke-width:0.092468"
         id="path914-9" />
      <path
         d="m 53.157276,39.711016 q 0,0.08378 -0.05292,0.180798 -0.30427,0.529165 -0.91281,0.842254 -0.577671,0.30427 -1.212669,0.30427 -0.992185,0 -1.710967,-0.657047 -0.745241,-0.674685 -0.745241,-1.65805 0,-0.983365 0.745241,-1.65805 0.718782,-0.657047 1.710967,-0.657047 0.361596,0 0.75406,0.127882 0.440971,0.14552 0.877532,0.463019 0.542394,0.396874 0.542394,0.75406 0,0.176388 -0.171979,0.268992 l -3.342559,1.799161 q 0.542394,0.555623 1.340552,0.555623 0.851073,0 1.375829,-0.5909 0.06174,-0.07937 0.185207,-0.242534 0.127882,-0.16316 0.273402,-0.16316 0.132291,0 0.238124,0.09701 0.105833,0.09701 0.105833,0.233715 z M 52.323842,37.625224 Q 51.785857,37.0696 50.978881,37.0696 q -0.714373,0 -1.243538,0.46302 -0.551214,0.485068 -0.551214,1.190621 0,0.282221 0.09701,0.537984 z"
         style="font-style:normal;font-variant:normal;font-weight:normal;font-stretch:normal;font-family:Monofur;-inkscape-font-specification:Monofur;fill:#ffffff;stroke-width:0.092468"
         id="path916-1" />
    </g>
    <g
       aria-label="Helium"
       id="text1151"
       style="font-size:19.7556px;line-height:1.25;font-family:monospace;-inkscape-font-specification:monospace;letter-spacing:0px;word-spacing:0px;stroke-width:0.264583">
      <path
         d="m 110.5172,30.106724 q 0,0.617363 -0.61736,0.617363 -0.61737,0 -0.61737,-0.617363 v -4.9389 h -4.52732 v 4.9389 q 0,0.617363 -0.61736,0.617363 -0.61737,0 -0.61737,-0.617363 V 18.994199 q 0,-0.617362 0.61737,-0.617362 0.61736,0 0.61736,0.617362 v 4.9389 h 4.52732 v -4.9389 q 0,-0.617362 0.61737,-0.617362 0.61736,0 0.61736,0.617362 z"
         style="font-style:normal;font-variant:normal;font-weight:normal;font-stretch:normal;font-size:19.7556px;font-family:Monofur;-inkscape-font-specification:Monofur;stroke-width:0.264583"
         id="path1016" />
      <path
         d="m 121.22638,28.246405 q 0,0.156399 -0.0988,0.337492 -0.56797,0.98778 -1.70392,1.572216 -1.07833,0.567974 -2.26366,0.567974 -1.85209,0 -3.19382,-1.226494 -1.39113,-1.259419 -1.39113,-3.095044 0,-1.835624 1.39113,-3.095044 1.34173,-1.226493 3.19382,-1.226493 0.67498,0 1.40758,0.238713 0.82315,0.27164 1.63807,0.864308 1.01248,0.740835 1.01248,1.407586 0,0.32926 -0.32103,0.502122 l -6.23948,3.358452 q 1.01248,1.037169 2.50238,1.037169 1.58868,0 2.56823,-1.103021 0.11524,-0.148167 0.34572,-0.452733 0.23871,-0.304565 0.51035,-0.304565 0.24695,0 0.4445,0.181093 0.19756,0.181093 0.19756,0.436269 z m -1.55575,-3.893499 q -1.00425,-1.037169 -2.51061,-1.037169 -1.3335,0 -2.32128,0.864307 -1.02894,0.905465 -1.02894,2.222505 0,0.526816 0.18109,1.004243 z"
         style="font-style:normal;font-variant:normal;font-weight:normal;font-stretch:normal;font-size:19.7556px;font-family:Monofur;-inkscape-font-specification:Monofur;stroke-width:0.264583"
         id="path1018" />
      <path
         d="m 131.10418,28.863768 q 0,0.172861 -0.1317,0.378649 -0.43627,0.666751 -1.30058,1.086558 -0.82315,0.395112 -1.66276,0.395112 -1.53106,0 -2.61762,-1.086558 -1.08656,-1.086558 -1.08656,-2.617617 v -8.025713 q 0,-0.617362 0.61736,-0.617362 0.61737,0 0.61737,0.617362 v 8.025713 q 0,1.020706 0.72437,1.745078 0.72437,0.724372 1.74508,0.724372 0.89723,0 1.59691,-0.617363 0.70791,-0.625594 0.85607,-0.625594 0.25518,0 0.4445,0.189325 0.19756,0.181093 0.19756,0.428038 z"
         style="font-style:normal;font-variant:normal;font-weight:normal;font-stretch:normal;font-size:19.7556px;font-family:Monofur;-inkscape-font-specification:Monofur;stroke-width:0.264583"
         id="path1020" />
      <path
         d="m 137.5906,19.315228 q 0,0.38688 -0.27987,0.650288 -0.27164,0.263408 -0.65852,0.263408 -0.38688,0 -0.66675,-0.263408 -0.27164,-0.263408 -0.27164,-0.650288 0,-0.386881 0.27164,-0.65852 0.27987,-0.279871 0.66675,-0.279871 0.38688,0 0.65852,0.279871 0.27987,0.271639 0.27987,0.65852 z m 2.14842,10.791496 q 0,0.617363 -0.61736,0.617363 h -2.46945 q -0.61736,0 -0.61736,-0.617363 v -6.790987 h -1.85209 q -0.61736,0 -0.61736,-0.617363 0,-0.617362 0.61736,-0.617362 h 2.47768 q 0.60913,0 0.60913,0.617362 v 6.790988 h 1.85209 q 0.61736,0 0.61736,0.617362 z"
         style="font-style:normal;font-variant:normal;font-weight:normal;font-stretch:normal;font-size:19.7556px;font-family:Monofur;-inkscape-font-specification:Monofur;stroke-width:0.264583"
         id="path1022" />
      <path
         d="m 150.43997,26.814124 q 0,1.621606 -1.14418,2.765784 -1.14417,1.144179 -2.76578,1.144179 -1.62161,0 -2.76578,-1.144179 -1.14418,-1.144178 -1.14418,-2.765784 v -4.11575 q 0,-0.617362 0.61736,-0.617362 0.61736,0 0.61736,0.617362 v 4.11575 q 0,1.103021 0.782,1.893245 0.79022,0.781993 1.89324,0.781993 1.10302,0 1.88501,-0.781993 0.79023,-0.790224 0.79023,-1.893245 v -4.11575 q 0,-0.617362 0.61736,-0.617362 0.61736,0 0.61736,0.617362 z"
         style="font-style:normal;font-variant:normal;font-weight:normal;font-stretch:normal;font-size:19.7556px;font-family:Monofur;-inkscape-font-specification:Monofur;stroke-width:0.264583"
         id="path1024" />
      <path
         d="m 160.72935,30.106724 q 0,0.617363 -0.61736,0.617363 -0.61737,0 -0.61737,-0.617363 v -5.556262 q 0,-0.510353 -0.36218,-0.872539 -0.36219,-0.362186 -0.87254,-0.362186 -0.51036,0 -0.87254,0.362186 -0.36219,0.362186 -0.36219,0.872539 v 5.556262 q 0,0.617363 -0.61736,0.617363 -0.61736,0 -0.61736,-0.617363 v -5.556262 q 0,-0.510353 -0.36219,-0.872539 -0.36218,-0.362186 -0.87254,-0.362186 -0.51035,0 -0.87254,0.362186 -0.36218,0.362186 -0.36218,0.872539 v 5.556262 q 0,0.617363 -0.61736,0.617363 -0.61737,0 -0.61737,-0.617363 v -7.40835 q 0,-0.617362 0.61737,-0.617362 0.4198,0 0.56797,0.362186 0.59267,-0.362186 1.28411,-0.362186 1.11126,0 1.85209,0.839613 0.74084,-0.839613 1.85209,-0.839613 1.0207,0 1.74508,0.724372 0.72437,0.724372 0.72437,1.745078 z"
         style="font-style:normal;font-variant:normal;font-weight:normal;font-stretch:normal;font-size:19.7556px;font-family:Monofur;-inkscape-font-specification:Monofur;stroke-width:0.264583"
         id="path1026" />
    </g>
    <rect
       style="fill:#800000;stroke:none;stroke-width:1.26231;fill-opacity:1"
       id="rect833-3-7-2"
       width="12.623125"
       height="12.623126"
       x="-1.7763568e-15"
       y="9.5367432e-07" />
    <rect
       style="fill:#c87137;stroke:none;stroke-width:1.26231;fill-opacity:1"
       id="rect833-3-6-5-7"
       width="12.623125"
       height="12.623126"
       x="12.623125"
       y="9.5367432e-07" />
    <rect
       style="fill:#a02c2c;stroke:none;stroke-width:1.26231;fill-opacity:1"
       id="rect833-3-6-7-3-0"
       width="12.623125"
       height="12.623126"
       x="-1.7763568e-15"
       y="12.623127" />
    <rect
       style="fill:#d45500;stroke:none;stroke-width:0.188117;fill-opacity:1"
       id="rect833-3-6-7-5-5-9"
       width="12.623124"
       height="12.623125"
       x="-1.7763568e-15"
       y="25.246254" />
    <rect
       style="fill:#d4aa00;stroke:none;stroke-width:0.188117;fill-opacity:1"
       id="rect833-3-6-7-5-3-6-3"
       width="12.623124"
       height="12.623125"
       x="12.623125"
       y="12.623127" />
    <rect
       style="fill:#217821;stroke:none;stroke-width:0.188117;fill-opacity:1"
       id="rect833-3-6-7-5-3-6-3-6"
       width="12.623124"
       height="12.623125"
       x="25.24625"
       y="-1.7763568e-15" />
  </g>
</svg>
